<svg xmlns="http://www.w3.org/2000/svg" xmlns:xlink="http://www.w3.org/1999/xlink" version="1.1" x="0px" y="0px" viewBox="0 0 100 100" enable-background="new 0 0 100 100" xml:space="preserve"><path fill="#ffffff" d="M83.472,49.997c0-1.101-0.689-2.073-1.892-2.666l-8.1-4l8.092-3.996c1.207-0.597,1.899-1.572,1.899-2.675  c0-1.101-0.689-2.072-1.892-2.666L53,19.881c-1.711-0.843-4.294-0.84-6.01,0.006L18.428,33.99c-1.208,0.597-1.9,1.572-1.9,2.676  c0,1.101,0.69,2.073,1.891,2.666l8.1,4l-8.09,3.995c-1.208,0.596-1.901,1.571-1.901,2.675c0,1.102,0.69,2.074,1.891,2.667l8.101,4  l-8.093,3.996c-1.208,0.597-1.9,1.571-1.899,2.675c0,1.102,0.69,2.073,1.891,2.666l28.58,14.112  c0.854,0.421,1.925,0.632,2.998,0.632c1.076,0,2.153-0.212,3.014-0.636l28.561-14.104c1.208-0.596,1.901-1.571,1.9-2.676  c0-1.102-0.689-2.072-1.892-2.665l-8.099-4l8.091-3.996C82.78,52.076,83.473,51.101,83.472,49.997z M48.54,23.026  c0.737-0.365,2.18-0.367,2.913-0.005l27.627,13.643L51.462,50.301c-0.738,0.365-2.18,0.368-2.913,0.005L20.92,36.663L48.54,23.026z   M79.079,63.336L51.463,76.975c-0.739,0.364-2.182,0.367-2.914,0.004L20.92,63.336l9.552-4.716l16.526,8.16  c0.854,0.422,1.925,0.634,2.998,0.634c1.076,0,2.154-0.213,3.015-0.637l16.518-8.156L79.079,63.336z M51.463,63.638  c-0.739,0.363-2.183,0.367-2.914,0.004L20.921,50l9.551-4.716l16.527,8.161c0.854,0.421,1.925,0.632,2.997,0.632  c1.077,0,2.155-0.212,3.015-0.637l16.517-8.156L79.079,50L51.463,63.638z"/></svg>
