<svg xmlns="http://www.w3.org/2000/svg" xmlns:xlink="http://www.w3.org/1999/xlink" version="1.1" x="0px" y="0px" viewBox="0 0 100 100" enable-background="new 0 0 100 100" xml:space="preserve"><path fill="#ffffff" d="M79.53,42.579c0,1.646-1.335,2.981-2.981,2.981c-1.647,0-2.981-1.335-2.981-2.981  c0-1.647,1.334-2.982,2.981-2.982C78.195,39.597,79.53,40.932,79.53,42.579z M85.75,72.239V37.98c0-2.712-1.912-4.919-4.263-4.919  H66.153l-7.148-9.519c-0.331-0.44-0.849-0.699-1.399-0.699h-15.21c-0.571,0-1.105,0.278-1.433,0.746l-6.641,9.476l-15.808,0.052  c-2.351,0-4.263,2.207-4.263,4.918v34.205c0,2.712,1.912,4.918,4.263,4.918h62.975C83.838,77.157,85.75,74.951,85.75,72.239z   M56.731,26.342l7.148,9.519c0.331,0.44,0.849,0.699,1.399,0.699h16.208c0.269,0,0.763,0.539,0.763,1.419v34.259  c0,0.88-0.494,1.418-0.763,1.418H18.513c-0.269,0-0.763-0.538-0.763-1.418V38.034c0-0.88,0.494-1.418,0.769-1.418l16.721-0.055  c0.568-0.002,1.101-0.28,1.427-0.746l6.639-9.473H56.731z M35.233,34.811h0.01H35.233z M64.516,55.218  c0-8.004-6.512-14.516-14.516-14.516s-14.516,6.512-14.516,14.516c0,8.004,6.512,14.516,14.516,14.516S64.516,63.222,64.516,55.218z   M61.016,55.218c0,6.074-4.941,11.016-11.016,11.016s-11.016-4.941-11.016-11.016S43.926,44.202,50,44.202  S61.016,49.144,61.016,55.218z M57.448,35.199c0-0.966-0.783-1.75-1.75-1.75H44.302c-0.966,0-1.75,0.784-1.75,1.75  s0.784,1.75,1.75,1.75h11.396C56.665,36.949,57.448,36.166,57.448,35.199z"/></svg>
