<svg xmlns="http://www.w3.org/2000/svg" xmlns:xlink="http://www.w3.org/1999/xlink" version="1.1" x="0px" y="0px" viewBox="0 0 100 100" enable-background="new 0 0 100 100" xml:space="preserve"><path fill="#ffffff" d="M48.25,65.001V15c0-0.966,0.784-1.75,1.75-1.75s1.75,0.784,1.75,1.75v50.001l9.847-9.848  c0.684-0.684,1.791-0.684,2.475,0s0.684,1.791,0,2.475L51.239,70.461c-0.081,0.081-0.17,0.154-0.266,0.219  c-0.02,0.014-0.043,0.022-0.064,0.035c-0.076,0.046-0.153,0.091-0.236,0.126c-0.035,0.014-0.072,0.021-0.108,0.034  c-0.072,0.025-0.143,0.051-0.219,0.067c-0.113,0.023-0.229,0.035-0.346,0.035s-0.233-0.012-0.346-0.035  c-0.076-0.015-0.147-0.042-0.219-0.067c-0.036-0.012-0.073-0.019-0.108-0.034c-0.083-0.035-0.16-0.08-0.236-0.126  c-0.021-0.013-0.044-0.021-0.064-0.035c-0.096-0.064-0.185-0.137-0.266-0.219L35.928,57.628c-0.684-0.684-0.684-1.791,0-2.475  s1.791-0.684,2.475,0L48.25,65.001z M74.885,28.039H58.873c-0.967,0-1.75,0.784-1.75,1.75s0.783,1.75,1.75,1.75h16.012  c0.526,0,0.971,0.435,0.971,0.936l-0.37,49.827c0,0.514-0.444,0.948-0.97,0.948H25.874c-0.525,0-0.969-0.435-0.969-0.975  l-0.76-49.788c0-0.515,0.444-0.949,0.969-0.949h16.013c0.966,0,1.75-0.784,1.75-1.75s-0.784-1.75-1.75-1.75H25.114  c-2.464,0-4.469,1.996-4.469,4.476l0.76,49.787c0,2.453,2.005,4.448,4.469,4.448h48.642c2.465,0,4.47-1.995,4.47-4.436l0.37-49.827  C79.355,30.035,77.35,28.039,74.885,28.039z"/></svg>
