<svg xmlns="http://www.w3.org/2000/svg" xmlns:xlink="http://www.w3.org/1999/xlink" version="1.1" x="0px" y="0px" viewBox="0 0 100 100" enable-background="new 0 0 100 100" xml:space="preserve"><path fill="#ffffff" d="M78.697,76.25H33.893c-2.063,0-3.742-1.678-3.742-3.74V40.08c0-2.062,1.679-3.741,3.742-3.741h44.804  c2.062,0,3.74,1.679,3.74,3.741v32.43C82.437,74.572,80.759,76.25,78.697,76.25z M33.893,39.839c-0.129,0-0.242,0.112-0.242,0.241  v32.43c0,0.13,0.111,0.24,0.242,0.24h44.804c0.13,0,0.24-0.11,0.24-0.24V40.08c0-0.129-0.112-0.241-0.24-0.241H33.893z   M27.682,60.163h-6.377c-0.129,0-0.242-0.112-0.242-0.241v-32.43c0-0.129,0.113-0.242,0.242-0.242h44.804  c0.129,0,0.241,0.113,0.241,0.242v6.093h3.5v-6.093c0-2.063-1.679-3.742-3.741-3.742H21.305c-2.063,0-3.742,1.679-3.742,3.742v32.43  c0,2.062,1.679,3.741,3.742,3.741h6.377V60.163z"/></svg>
