<svg id="Layer_1" data-name="Layer 1" xmlns="http://www.w3.org/2000/svg" viewBox="0 0 671.95 278.49"><defs><style>.cls-1,.cls-2{fill:#fff;}.cls-2{font-size:49.67px;font-family:Heinberg-Regular, Heinberg;letter-spacing:0.2em;}.cls-3{letter-spacing:0.18em;}</style></defs><title>Gifsmos-logo</title><path class="cls-1" d="M218.72,498.25c0-72.31,59-131,131-131,40.32,0,77.64,17.66,102.63,49l-38,25.5c-3.75-3.63-32.22-30.28-71-24.6-36.83,5.41-71.59,38.35-70.29,81.07,1.41,46.42,45.62,76.64,76.64,76.64a82.7,82.7,0,0,0,38.56-10.23c5.06-2.82,10.75-6,15.75-12.1,11.95-14.61,9.68-33.47,8.79-39L189.21,381.21a4.84,4.84,0,0,1,.82-2.78,4.76,4.76,0,0,1,1.94-1.65q106.16,38.4,217,86.78,24.94,10.95,49.33,22.11v86.55l-6,7.33A129.77,129.77,0,0,1,349.67,629.2C277.7,629.2,218.72,570.22,218.72,498.25Z" transform="translate(-154.67 -360.61)"/><path class="cls-1" d="M491.62,370.29h51.32V624.2H491.62Z" transform="translate(-154.67 -360.61)"/><path class="cls-1" d="M576.25,370H733.87v51H627.57v54h79v51h-79v98.3H576.25Z" transform="translate(-154.67 -360.61)"/><path class="cls-1" d="M154.67,360.61l35.21,42.88c-.67-.89-10.69-14.64-4.09-26.66,6.45-11.71,22.85-11.13,24.12-11.06Z" transform="translate(-154.67 -360.61)"/><text class="cls-2" transform="translate(490.16 263.59)">SM<tspan class="cls-3" x="92.98" y="0">O</tspan><tspan x="144.24" y="0">S</tspan></text></svg>