<svg id="Layer_1" data-name="Layer 1" xmlns="http://www.w3.org/2000/svg" viewBox="0 0 29.36 25.98"><defs><style>.cls-1{fill:#e79724;}</style></defs><title>gifsmos-favicon</title><path class="cls-1" d="M6.77,16.32A12.7,12.7,0,0,1,29.36,8.4l-3.68,2.46a8.61,8.61,0,0,0-6.86-2.38A7.93,7.93,0,0,0,12,16.32a8,8,0,0,0,7.41,7.41,8,8,0,0,0,3.73-1,4.89,4.89,0,0,0,1.52-1.17,4.85,4.85,0,0,0,.85-3.78L3.91,5A.43.43,0,0,1,4,4.74a.4.4,0,0,1,.19-.16C11,7.05,18,9.84,25.16,13c1.61.7,3.2,1.42,4.78,2.14v8.37l-.58.71A12.57,12.57,0,0,1,19.43,29,12.71,12.71,0,0,1,6.77,16.32Z" transform="translate(-0.57 -3.01)"/><path class="cls-1" d="M.57,3,4,7.16a2.62,2.62,0,0,1-.4-2.58A2.63,2.63,0,0,1,5.91,3.51Z" transform="translate(-0.57 -3.01)"/></svg>