<svg id="Layer_1" data-name="Layer 1" xmlns="http://www.w3.org/2000/svg" viewBox="0 0 100 100"><defs><style>.cls-1{fill:#fff;}</style></defs><title>info(white)</title><path class="cls-1" d="M50.16,0c27.45.09,50,22.66,49.84,49.92A50.14,50.14,0,0,1,49.8,100h0C22.33,100.05-.13,77.31,0,49.56A50,50,0,0,1,50.16,0Zm.23,9.46a40.43,40.43,0,0,0-40.81,40v.42C9.33,72,27.66,90.44,49.81,90.49A40.48,40.48,0,0,0,90.38,50.1v-.31C90.25,27.64,72.25,9.49,50.39,9.46Z" transform="translate(0 0)"/><path class="cls-1" d="M47.89,78.34H44.21a.74.74,0,0,0-.21-.13,4.75,4.75,0,0,1-2.84-5.7c1.67-6.89,3.39-13.77,5.06-20.66a21.7,21.7,0,0,0,.5-2.9.68.68,0,0,0-.46-.83.66.66,0,0,0-.44,0,5.77,5.77,0,0,0-1.15.39c-.84.35-1.65.76-2.49,1.09a1.41,1.41,0,0,1-1.81-.36V47.92A15.68,15.68,0,0,1,42.3,45.7c2.52-2,5.11-3.89,7.71-5.79a8.5,8.5,0,0,1,1.78-.9,4.33,4.33,0,0,1,2.61-.27,5.06,5.06,0,0,1,4.36,5.68,5,5,0,0,1-.19.85q-2.45,10-4.9,19.9a26.19,26.19,0,0,0-.58,3.28.64.64,0,0,0,.93.72c.62-.19,1.2-.49,1.8-.73s1.47-.61,2.22-.86a1.06,1.06,0,0,1,1.21.35,1.1,1.1,0,0,1,.12,1.3,4.45,4.45,0,0,1-.69,1.07,18.89,18.89,0,0,1-2,1.9A56.28,56.28,0,0,1,47.89,78.34Z" transform="translate(0 0)"/><path class="cls-1" d="M52.65,35.62a7,7,0,1,1,6.94-7.06v.06a7,7,0,0,1-6.9,7Z" transform="translate(0 0)"/></svg>