<svg xmlns="http://www.w3.org/2000/svg" xmlns:xlink="http://www.w3.org/1999/xlink" version="1.1" x="0px" y="0px" viewBox="0 0 100 125" enable-background="new 0 0 100 100" xml:space="preserve"><path fill="#ffffff" d="M40.192,48.763L54.924,34.03c0.683-0.684,1.792-0.684,2.475,0c0.684,0.684,0.684,1.791,0,2.475L43.904,50  l13.495,13.495c0.684,0.684,0.684,1.792,0,2.475c-0.683,0.684-1.792,0.684-2.475,0L40.192,51.237  c-0.342-0.342-0.513-0.79-0.513-1.237S39.85,49.104,40.192,48.763z M18.25,22.955v54.088c0,2.595,2.101,4.707,4.684,4.707h54.134  c2.583,0,4.684-2.111,4.684-4.705V22.957c0-2.596-2.101-4.707-4.684-4.707H22.933C20.35,18.25,18.25,20.36,18.25,22.955z   M78.25,77.045c0,0.665-0.531,1.205-1.184,1.205H22.933c-0.642,0-1.184-0.553-1.184-1.207V22.955c0-0.664,0.531-1.205,1.184-1.205  h54.134c0.642,0,1.184,0.553,1.184,1.207V77.045z"/></svg>