<svg xmlns="http://www.w3.org/2000/svg" xmlns:xlink="http://www.w3.org/1999/xlink" version="1.1" x="0px" y="0px" viewBox="0 0 100 100" enable-background="new 0 0 100 100" xml:space="preserve"><path fill="#000000" d="M62.922,51.757H37.076c-0.966,0-1.75-0.784-1.75-1.75s0.784-1.75,1.75-1.75h25.846  c0.967,0,1.75,0.784,1.75,1.75S63.889,51.757,62.922,51.757z M71.036,71.043c5.619-5.619,8.714-13.09,8.714-21.036  c0-7.947-3.095-15.417-8.714-21.036l0,0l0,0c-5.619-5.619-13.09-8.714-21.036-8.714s-15.417,3.095-21.036,8.714  c-5.619,5.619-8.714,13.089-8.714,21.036c0,7.946,3.095,15.417,8.714,21.036c5.8,5.8,13.418,8.7,21.036,8.7  S65.236,76.843,71.036,71.043z M68.562,31.445L68.562,31.445c4.958,4.958,7.688,11.55,7.688,18.562s-2.73,13.604-7.688,18.562  c-10.234,10.235-26.887,10.234-37.123,0c-4.958-4.958-7.688-11.55-7.688-18.562s2.73-13.604,7.688-18.562S42.988,23.757,50,23.757  S63.604,26.487,68.562,31.445z"/></svg>
