<svg xmlns="http://www.w3.org/2000/svg" xmlns:xlink="http://www.w3.org/1999/xlink" version="1.1" x="0px" y="0px" viewBox="0 0 100 100" enable-background="new 0 0 100 100" xml:space="preserve"><path fill="#000000" d="M64.672,50.007c0,0.966-0.783,1.75-1.75,1.75H51.75V62.93c0,0.967-0.784,1.75-1.75,1.75  s-1.75-0.783-1.75-1.75V51.757H37.076c-0.966,0-1.75-0.784-1.75-1.75s0.784-1.75,1.75-1.75H48.25V37.084  c0-0.966,0.784-1.75,1.75-1.75s1.75,0.784,1.75,1.75v11.173h11.172C63.889,48.257,64.672,49.041,64.672,50.007z M79.75,50.007  c0,7.946-3.095,15.417-8.714,21.036c-5.8,5.8-13.418,8.7-21.036,8.7s-15.236-2.9-21.036-8.7c-5.619-5.619-8.714-13.09-8.714-21.036  c0-7.947,3.095-15.417,8.714-21.036c5.619-5.619,13.09-8.714,21.036-8.714s15.417,3.095,21.036,8.714  C76.655,34.589,79.75,42.06,79.75,50.007z M76.25,50.007c0-7.012-2.73-13.604-7.688-18.562S57.012,23.757,50,23.757  s-13.604,2.73-18.562,7.688s-7.688,11.55-7.688,18.562s2.73,13.604,7.688,18.562c10.236,10.234,26.889,10.235,37.123,0  C73.52,63.61,76.25,57.019,76.25,50.007z"/></svg>
