<svg xmlns="http://www.w3.org/2000/svg" xmlns:xlink="http://www.w3.org/1999/xlink" version="1.1" x="0px" y="0px" viewBox="0 0 100 100" enable-background="new 0 0 100 100" xml:space="preserve"><path fill="#ffffff" d="M82.75,50c0-0.016-0.006-0.033-0.006-0.05c-0.09-5.526-15.54-17.116-32.745-17.116  C34.929,32.834,17.25,44.18,17.25,50s17.679,17.167,32.749,17.167c17.135,0,32.526-11.496,32.739-17.048  C82.741,50.078,82.75,50.04,82.75,50z M73.921,44.27c-3.964-1.271-8.906-2.326-14.083-2.951c-0.238-0.082-0.491-0.114-0.749-0.087  c-3.014-0.338-6.092-0.53-9.088-0.53c-6.819,0-16.431,1.478-23.478,3.614c5.533-3.815,14.364-7.983,23.476-7.983  C59.87,36.334,68.62,40.459,73.921,44.27z M57.455,49.84c-0.894,1.991-2.509,3.515-4.55,4.291c-2.038,0.778-4.258,0.714-6.25-0.181  c-1.991-0.894-3.515-2.509-4.292-4.549c-0.583-1.53-0.693-3.151-0.33-4.724c1.455-0.167,2.939-0.294,4.438-0.375  c-1.132,1.626-1.023,3.873,0.381,5.381c1.618,1.737,4.338,1.834,6.076,0.216c1.593-1.484,1.789-3.885,0.566-5.614  c1.523,0.069,3.008,0.179,4.447,0.326C58.36,46.355,58.201,48.177,57.455,49.84z M49.999,63.666  c-14.215,0-27.751-10.137-29.126-13.262c1.797-1.29,8.844-3.832,17.534-5.228c-0.214,1.839,0.011,3.698,0.686,5.47  c1.108,2.914,3.286,5.221,6.13,6.498c1.527,0.685,3.148,1.028,4.772,1.028c1.402,0,2.807-0.256,4.155-0.77  c2.914-1.108,5.222-3.285,6.498-6.13c0.887-1.978,1.188-4.112,0.924-6.209c9.267,1.37,16.018,4.022,17.6,5.315  C78.146,53.574,65.441,63.666,49.999,63.666z"/></svg>
