<svg xmlns="http://www.w3.org/2000/svg" xmlns:xlink="http://www.w3.org/1999/xlink" version="1.1" x="0px" y="0px" viewBox="0 0 100 100" enable-background="new 0 0 100 100" xml:space="preserve"><path fill="#ffffff" d="M70.357,34.12c-0.684-0.684-1.791-0.684-2.475,0c-0.684,0.683-0.684,1.792,0,2.475  c9.856,9.857,9.856,25.895,0,35.751c-9.858,9.855-25.895,9.855-35.751,0c-4.775-4.774-7.404-11.123-7.404-17.876  c0-6.752,2.629-13.101,7.404-17.875c5.882-5.882,14.189-8.436,22.261-7.014l-7.877,7.877c-0.684,0.683-0.684,1.792,0,2.475  c0.342,0.342,0.79,0.513,1.237,0.513s0.896-0.171,1.237-0.513l10.098-10.097c-0.003-0.003-0.004-0.004-0.007-0.007  c0.198-0.197,0.357-0.438,0.444-0.724c0.193-0.639-0.002-1.297-0.443-1.738c0.002-0.002,0.004-0.004,0.005-0.005L48.989,17.263  c-0.684-0.684-1.791-0.684-2.475,0c-0.684,0.683-0.684,1.792,0,2.475l6.064,6.064c-8.402-0.756-16.811,2.209-22.922,8.319  c-5.436,5.436-8.43,12.663-8.43,20.35c0,7.688,2.994,14.915,8.43,20.351c5.436,5.436,12.663,8.43,20.351,8.43  c7.687,0,14.915-2.994,20.35-8.43C81.578,63.6,81.578,45.341,70.357,34.12z"/></svg>
