<svg xmlns="http://www.w3.org/2000/svg" xmlns:xlink="http://www.w3.org/1999/xlink" version="1.1" x="0px" y="0px" viewBox="0 0 100 125" enable-background="new 0 0 100 100" xml:space="preserve"><path fill="#ffffff" d="M60.321,50c0,0.448-0.171,0.896-0.513,1.237L45.076,65.97c-0.683,0.684-1.792,0.684-2.475,0  c-0.684-0.683-0.684-1.791,0-2.475L56.096,50L42.602,36.505c-0.684-0.684-0.684-1.791,0-2.475c0.683-0.684,1.792-0.684,2.475,0  l14.732,14.732C60.15,49.104,60.321,49.552,60.321,50z M77.067,18.25H22.933c-2.583,0-4.684,2.111-4.684,4.707v54.088  c0,2.594,2.101,4.705,4.684,4.705h54.134c2.583,0,4.684-2.111,4.684-4.707V22.955C81.75,20.36,79.65,18.25,77.067,18.25z   M21.75,22.957c0-0.654,0.542-1.207,1.184-1.207h54.134c0.652,0,1.184,0.541,1.184,1.205v54.088c0,0.654-0.542,1.207-1.184,1.207  H22.933c-0.653,0-1.184-0.541-1.184-1.205V22.957z"/></svg>