<svg xmlns="http://www.w3.org/2000/svg" xmlns:xlink="http://www.w3.org/1999/xlink" version="1.1" x="0px" y="0px" viewBox="0 0 100 100" enable-background="new 0 0 100 100" xml:space="preserve"><path fill="#fff" d="M79.607,74.371H20.392c-2.284,0-4.142-1.858-4.142-4.143V29.771c0-2.284,1.858-4.142,4.142-4.142h15.263  c0.416,0,0.818,0.148,1.135,0.417l7.235,6.162h35.582c2.284,0,4.143,1.858,4.143,4.143v33.877  C83.75,72.512,81.892,74.371,79.607,74.371z M20.392,29.129c-0.348,0-0.642,0.294-0.642,0.642v40.457  c0,0.349,0.294,0.643,0.642,0.643h59.215c0.349,0,0.643-0.294,0.643-0.643V36.351c0-0.349-0.294-0.643-0.643-0.643H43.381  c-0.416,0-0.818-0.148-1.135-0.417l-7.235-6.162H20.392z"/></svg>