<svg xmlns="http://www.w3.org/2000/svg" xmlns:xlink="http://www.w3.org/1999/xlink" version="1.1" x="0px" y="0px" viewBox="0 0 100 100" enable-background="new 0 0 100 100" xml:space="preserve"><path fill="#ffffff" d="M54.175,82.75h-8.35c-0.74,0-1.4-0.466-1.649-1.163l-1.605-4.513c-0.44-1.238-1.382-2.24-2.589-2.755  c-0.015-0.006-0.031-0.012-0.046-0.019c-1.23-0.51-2.626-0.474-3.832,0.098l-4.321,2.054c-0.669,0.319-1.466,0.181-1.989-0.343  l-5.904-5.904c-0.524-0.523-0.661-1.319-0.343-1.988l2.054-4.322c0.572-1.204,0.608-2.601,0.097-3.831  c-0.51-1.229-1.521-2.19-2.773-2.636l-4.512-1.604c-0.698-0.248-1.164-0.908-1.164-1.648v-8.35c0-0.74,0.466-1.401,1.164-1.649  l4.511-1.604c1.238-0.44,2.24-1.383,2.755-2.59c0.006-0.016,0.012-0.031,0.019-0.046c0.51-1.229,0.475-2.626-0.098-3.832  l-2.054-4.322c-0.318-0.668-0.18-1.465,0.343-1.988l5.904-5.904c0.523-0.524,1.319-0.662,1.989-0.343l4.322,2.055  c1.204,0.572,2.601,0.608,3.833,0.098c1.228-0.509,2.188-1.521,2.634-2.775l1.604-4.511c0.248-0.698,0.909-1.164,1.649-1.164h8.35  c0.74,0,1.401,0.466,1.649,1.164l1.604,4.512c0.445,1.252,1.405,2.263,2.633,2.772c0.007,0.003,0.013,0.005,0.02,0.008  c1.226,0.503,2.614,0.466,3.814-0.105l4.322-2.055c0.666-0.317,1.465-0.181,1.988,0.343l5.903,5.904  c0.523,0.523,0.661,1.32,0.344,1.988l-2.054,4.322c-0.565,1.189-0.607,2.566-0.117,3.788c0.007,0.016,0.014,0.031,0.021,0.047  c0.508,1.227,1.519,2.186,2.772,2.633l4.512,1.604c0.698,0.248,1.164,0.909,1.164,1.649v8.35c0,0.74-0.466,1.4-1.164,1.648  l-4.509,1.604c-1.254,0.446-2.268,1.408-2.778,2.639c-0.509,1.229-0.474,2.625,0.098,3.826l2.056,4.325  c0.317,0.669,0.18,1.465-0.344,1.988l-5.903,5.904c-0.523,0.523-1.321,0.66-1.988,0.343l-4.35-2.067  c-1.188-0.563-2.566-0.598-3.781-0.094c-1.244,0.518-2.217,1.542-2.669,2.812l-1.594,4.483C55.575,82.284,54.915,82.75,54.175,82.75  z M47.06,79.25h5.88l1.181-3.319c0.782-2.2,2.467-3.976,4.621-4.871c2.13-0.885,4.545-0.826,6.628,0.164l3.234,1.538l4.157-4.158  l-1.525-3.209c-0.996-2.094-1.058-4.524-0.17-6.67c0.892-2.145,2.654-3.818,4.84-4.596l3.345-1.189V47.06l-3.349-1.19  c-2.166-0.771-3.915-2.42-4.809-4.532c-0.01-0.021-0.019-0.041-0.027-0.062c-0.887-2.146-0.824-4.578,0.172-6.673l1.523-3.207  l-4.157-4.158l-3.207,1.524c-2.095,0.997-4.528,1.059-6.675,0.17c-0.008-0.003-0.016-0.007-0.023-0.01  c-2.13-0.891-3.794-2.647-4.568-4.823l-1.19-3.349h-5.88l-1.19,3.348c-0.778,2.185-2.451,3.947-4.59,4.834  c-2.146,0.889-4.58,0.828-6.678-0.169l-3.206-1.524l-4.157,4.157l1.524,3.208c0.988,2.081,1.058,4.49,0.192,6.619  c-0.007,0.02-0.015,0.039-0.023,0.059c-0.888,2.14-2.649,3.812-4.833,4.589l-3.348,1.19v5.879l3.348,1.191  c2.183,0.775,3.944,2.448,4.833,4.589c0.89,2.147,0.828,4.581-0.169,6.678l-1.524,3.206l4.157,4.158l3.206-1.524  c2.08-0.989,4.489-1.058,6.619-0.192c0.02,0.008,0.04,0.016,0.059,0.023c2.14,0.888,3.812,2.649,4.588,4.833L47.06,79.25z   M81,54.175h0.01H81z M50,63.196c-7.277,0-13.197-5.92-13.197-13.196S42.723,36.804,50,36.804c7.276,0,13.195,5.92,13.195,13.196  S57.276,63.196,50,63.196z M50,40.304c-5.347,0-9.697,4.35-9.697,9.696s4.35,9.696,9.697,9.696c5.346,0,9.695-4.35,9.695-9.696  S55.346,40.304,50,40.304z"/></svg>
